<svg width="1024" height="1024" viewBox="0 0 1024 1024" fill="none" xmlns="http://www.w3.org/2000/svg">
<path d="M471.034 57.8607L501.323 126.01L516.467 201.731L554.327 262.308L607.332 315.313L667.909 375.89L705.77 421.323L751.203 489.472L766.347 474.328L804.208 459.183L842.068 474.328L872.357 497.044L895.073 572.765L910.217 678.775L895.073 762.068L857.212 822.645L804.208 837.79L766.347 807.501H751.203L698.198 883.222L645.193 928.655L546.755 958.944H501.323C483.654 966.516 445.289 983.174 433.173 989.232C421.058 995.29 402.885 991.756 395.313 989.232C375.12 986.708 331.707 980.146 319.592 974.088C307.476 968.03 294.351 956.42 289.303 951.371V928.655V890.794L266.587 883.222C259.015 878.174 242.356 866.564 236.298 860.506C228.726 852.934 206.01 845.362 206.01 837.79V815.073V769.64L221.154 746.924C216.106 744.4 199.952 734.809 175.721 716.636C163.606 704.52 150.481 686.347 145.433 678.775V648.486L160.577 618.198L168.149 587.909L130.288 557.621L115.144 512.188L130.288 466.755L168.149 428.895L243.87 413.751H319.592L395.313 451.611C405.409 446.563 425.601 434.953 425.601 428.895C425.601 422.837 440.746 406.178 448.318 398.606C440.746 380.938 424.087 344.087 418.029 338.029C411.971 331.972 400.361 315.313 395.313 307.741L372.596 262.308L357.452 171.443L372.596 80.577L425.601 35.1443L471.034 57.8607Z" fill="white"/>
<path d="M754.388 823.131C751.231 829.373 748.63 835.24 745.383 840.747C734.547 859.153 723.228 877.236 706.598 891.211C706.096 891.623 705.629 892.09 705.235 892.61C692.264 909.975 674.414 921.546 656.852 933.476C639.773 945.083 621.475 954.196 602.334 961.946C578.098 971.776 552.732 976.566 527.042 978.737C516.835 979.598 505.838 981.033 495.451 977.535C489.459 975.508 484.723 979.096 479.79 981.32C466.138 987.491 452.612 994.147 437.776 996.874C427.084 998.847 416.751 1002.51 405.575 1002.35C397.143 1002.22 388.676 1004.28 380.226 1004.37C373.571 1004.44 366.772 1003.56 360.278 1002.08C343.63 998.237 326.946 994.649 311.823 985.751C295.911 976.405 282.887 963.757 276.429 947.164C270.653 932.31 268.661 915.626 273.684 899.337C273.953 898.476 273.846 897.525 273.899 896.951C263.889 893.435 254.023 890.385 244.497 886.511C221.606 877.218 204.366 861.61 194.482 838.774C187.521 822.718 184.956 805.299 188.849 788.561C192.275 773.815 196.276 758.423 207.434 746.96C206.753 745.991 206.483 745.13 206.035 745.04C186.983 740.95 172.578 728.734 157.455 717.665C147.086 710.077 139.785 699.403 134.152 688.872C127.837 677.068 125.164 662.86 128.357 648.688C132.053 632.202 140.718 618.603 152.235 606.584C153.544 605.203 154.764 603.732 156.988 601.184C142.386 594.834 133.273 582.868 123.98 571.71C107.601 552.03 98.6138 529.176 100.174 502.733C101.341 482.928 111.386 467.912 122.742 452.7C134.456 437.003 150.494 427.136 165.958 416.337C169.223 414.058 173.887 413.861 177.744 412.3C199.146 403.671 221.265 399.348 244.425 398.272C265.916 397.285 287.426 398.11 307.948 402.918C326.964 407.385 346.536 411.834 364.081 421.449C370.431 424.93 376.459 428.984 381.679 432.177C390.846 426.975 398.794 422.149 407.028 417.879C417.218 412.587 425.487 397.447 425.021 385.876C424.321 368.582 417.074 353.513 409.001 338.982C401.054 324.648 391.995 310.835 382.54 297.417C374.091 285.433 366.215 273.127 359.058 260.408C353.066 249.752 348.097 238.539 345.872 226.269C345.083 221.874 342.894 217.748 341.585 213.424C340.49 209.765 339.288 206.051 338.948 202.284C338.158 193.727 337.028 185.062 337.548 176.541C338.75 157.346 338.858 138.169 343.863 119.153C350.913 92.3154 364.852 69.4068 380.854 47.6284C391.223 33.5101 406.149 23.7868 423.371 20.8447C437.561 18.4229 452.181 21.3471 465.546 27.8412C478.624 34.1917 486.14 45.8703 493.711 57.495C500.51 67.9358 503.309 80.0088 507.811 91.4003C515.149 109.95 515.274 129.719 518.109 148.914C522.468 178.335 533.572 204.437 550.4 228.547C557.988 239.4 565.074 250.631 572.931 261.287C579.228 269.826 586.117 277.97 593.185 285.917C602.316 296.179 611.716 306.189 621.332 316.002C627.431 322.227 634.194 327.788 640.473 333.851C645.46 338.677 650.179 343.79 655.004 348.795C657.462 351.342 659.794 353.997 662.305 356.491C676.926 371.129 691.834 385.499 706.114 400.442C713.415 408.085 720.16 416.373 726.152 425.073C730.314 431.119 736.27 435.406 739.642 442.475C744.324 452.305 751.536 460.934 757.689 470.119C766.892 464.63 776.759 458.799 786.536 452.861C793.855 448.412 802.053 449.417 810.018 448.484C822.935 446.977 833.878 453.238 845.431 456.951C849.216 458.171 852.248 461.706 855.584 464.235C879.157 482.049 892.827 507.02 903.626 533.427C910.066 549.178 914.731 565.933 917.816 582.689C921.655 603.391 924.059 624.416 923.987 645.638C923.952 658.555 922.014 671.273 921.386 684.064C920.436 703.098 915.879 721.414 912.453 739.928C910.425 750.853 905.617 761.437 900.917 771.627C895.23 783.969 889.544 796.634 881.65 807.577C871.784 821.265 861.074 834.522 843.978 840.962C835.51 844.156 827.366 848.21 818.324 849.376C804.313 851.17 791.559 846.577 778.839 841.339C769.314 837.41 762.658 829.965 754.352 823.148L754.388 823.131ZM480.184 673.426C481.207 674.628 482.23 676.35 483.736 677.481C485.477 678.79 487.971 679.203 489.531 680.638C494.195 684.979 497.64 690.343 501.533 695.366C517.66 716.266 522.378 739.407 516.422 764.863C514.664 772.326 515.077 774.102 522.181 776.452C541.071 782.677 556.624 793.459 568.213 809.712C570.42 812.797 573.165 815.65 574.707 819.04C581.74 834.504 584.144 850.919 581.919 867.656C580.879 875.478 579.372 883.317 575.425 890.78C571.371 898.422 567.262 905.921 562.939 913.42C557.557 922.748 550.453 930.229 543.529 938.05C540.569 941.387 537.555 944.688 534.559 948.007C545.484 947.791 555.53 945.908 565.558 943.881C582.762 940.418 599.535 934.785 614.497 926.175C628.005 918.389 643.092 912.827 654.394 901.131C661.749 893.525 670.342 887.138 678.128 879.927C682.828 875.585 687.169 870.849 691.439 866.078C698.345 858.364 706.329 851.26 711.639 842.541C731.3 810.268 747.213 776.165 758.586 740.035C760.237 734.815 762.73 729.864 764.847 724.805C765.224 723.908 765.529 722.957 766.067 722.168C768.955 717.916 772.956 717.701 775.216 722.185C777.064 725.881 779.091 730.33 778.66 734.169C776.759 751.176 775.844 768.433 769.798 784.74C767.395 791.234 768.692 796.754 773.691 801.298C774.624 802.142 775.557 803.056 776.292 804.079C782.499 812.654 791.505 817.193 801.246 819.65C809.211 821.66 817.428 823.131 825.895 819.309C835.223 815.094 843.063 808.958 850.005 802.016C864.626 787.377 873.668 768.81 880.162 749.669C888.163 726.132 892.862 701.501 894.298 676.566C895.302 659.021 895.392 641.476 894.136 623.824C893.365 612.881 892.773 601.938 890.817 591.21C889.275 582.778 886.081 574.67 883.839 566.346C877.255 541.877 868.465 518.771 851.423 499.055C844.139 490.624 836.174 484.112 826.361 479.95C819.006 476.828 811.005 475.77 802.843 477.923C791.935 480.793 782.804 486.246 774.462 493.889C770.39 497.602 768.955 500.293 771.108 505.334C776.669 518.376 780.885 531.813 784.545 545.572C791.003 569.862 795.685 594.044 790.518 619.16C789.872 622.317 789.263 625.618 787.792 628.416C785.334 633.081 781.226 633.063 779.181 628.273C777.297 623.86 776.292 619.034 775.216 614.316C771.844 599.48 769.009 584.519 765.188 569.808C762.318 558.74 758.424 547.922 754.639 537.123C752.074 529.804 749.401 522.466 745.903 515.56C737.005 497.997 727.748 480.614 718.366 463.302C715.029 457.131 711.226 451.157 707.118 445.47C704.14 441.362 700.229 437.936 696.892 434.061C692.713 429.217 688.963 423.997 684.568 419.369C676.46 410.794 667.992 402.541 659.74 394.092C650.142 384.261 640.652 374.323 631.001 364.546C626.301 359.792 621.206 355.45 616.506 350.696C607.375 341.44 598.316 332.111 589.364 322.657C578.797 311.481 567.711 300.681 558.078 288.752C548.049 276.338 539.259 262.883 530.307 249.644C523.239 239.203 515.4 228.978 510.269 217.586C503.577 202.75 497.442 187.556 494.321 171.231C490.984 153.865 488.347 136.428 485.638 118.973C482.786 100.729 479.001 82.5922 466.802 67.3437C458.675 57.19 450.351 50.0143 436.287 48.9379C422.366 47.8615 412.733 53.0997 403.835 62.4461C391.313 75.6136 382.81 91.508 376.029 107.815C364.942 134.437 363.74 162.979 366.072 191.412C367.507 208.796 372.584 225.533 380.639 241.123C386.559 252.568 392.748 263.888 399.421 274.903C405.09 284.249 412.266 292.716 417.666 302.206C426.402 317.562 434.941 333.116 442.171 349.208C446.638 359.128 450.046 370.035 451.177 380.799C452.63 394.469 450.907 407.923 441.256 419.745C435.749 426.49 431.569 433.899 423.55 438.42C417.469 441.847 412.141 446.618 406.059 451.085C440.449 486.516 439.534 523.453 409.324 561.951C414.706 564.875 419.334 568.606 424.608 570.042C438.081 573.719 447.714 583.64 458.298 591.3C466.586 597.309 472.022 608.037 477.063 617.545C486.463 635.269 489.351 653.926 480.184 673.444V673.426ZM258.095 425.378C242.829 428.033 226.665 426.472 210.771 431.316C197.406 435.388 184.221 439.443 172.434 446.798C161.527 453.597 151.894 461.903 143.121 471.626C127.909 488.489 126.043 515.291 134.08 534.396C139.085 546.272 147.283 555.457 156.468 563.942C172.811 579.029 191.809 588.25 214.52 586.133C230.863 584.608 247.08 581.648 263.297 578.939C282.187 575.782 300.988 572.158 319.86 568.857C327.628 567.512 335.557 567.01 343.199 565.198C349.729 563.655 355.936 560.731 362.323 558.524C381.231 552.048 393.932 539.24 400.498 520.529C402.166 515.757 403.655 510.285 402.92 505.478C401.521 496.239 398.56 487.233 396.031 478.174C395.547 476.434 394.363 474.712 393.107 473.384C380.244 459.714 363.722 451.372 347.002 443.981C334.696 438.546 321.403 435.191 308.343 431.657C292.144 427.28 275.514 425.522 258.095 425.36V425.378ZM382.756 582.402C371.921 586.313 361.91 591.084 351.38 593.452C334.714 597.184 317.689 599.319 300.808 602.081C286.87 604.36 272.859 606.225 259.01 608.934C233.805 613.849 208.6 616.218 183.036 611.733C181.027 611.374 177.744 612.63 176.542 614.244C171.322 621.241 166.263 628.416 161.85 635.951C153.759 649.782 153.454 664.564 161.043 678.288C167.286 689.572 176.668 698.201 188.221 705.215C210.214 718.562 234.2 725.235 259.028 729.056C282.78 732.716 306.908 732.429 330.75 729.415C347.326 727.334 363.722 724.123 379.706 718.634C403.224 710.561 424.268 699.133 441.884 681.122C445.992 676.906 447.499 671.919 450.674 667.578C457.384 658.447 458.37 647.827 455.051 637.242C449.598 619.913 436.359 608.844 421.666 599.875C413.235 594.726 403.386 591.91 394.219 587.927C390.362 586.259 386.649 584.285 382.756 582.402ZM231.15 753.867C226.988 765.204 223.221 776.165 218.933 786.911C213.372 800.814 215.866 814.556 220.889 827.472C226.701 842.398 238.756 853 252.928 859.458C274.958 869.504 298.53 873.576 322.892 871.172C328.256 870.652 333.602 869.952 338.912 868.966C351.236 866.687 363.848 865.234 375.759 861.557C391.026 856.821 405.359 849.412 419.316 841.572C443.05 828.261 462.712 810.698 477.117 787.198C484.616 774.945 489.154 762.226 490.195 748C491.738 726.724 480.741 712.05 465.618 698.541C463.232 700.748 461.581 702.219 459.985 703.744C455.661 707.87 451.643 712.355 446.997 716.068C436.143 724.733 424.357 732.052 411.405 737.057C398.578 742.009 385.554 746.565 372.333 750.368C363.417 752.916 353.909 753.328 344.904 755.589C319.771 761.921 294.404 761.042 269.002 758.567C256.929 757.383 244.91 755.589 231.204 753.849L231.15 753.867ZM501.73 801.872C500.635 804.204 499.99 806.913 498.375 808.743C490.93 817.157 482.876 825.05 475.646 833.625C462.281 849.483 444.808 859.888 427.084 869.522C412.374 877.505 396.587 883.586 381.069 889.991C374.091 892.861 366.736 895.444 359.327 896.503C344.76 898.566 330.032 899.696 315.34 900.754C309.994 901.131 304.558 900.162 299.284 899.821C294.315 930.659 307.949 951.613 329.727 963.148C348.079 972.871 368.53 975.956 388.999 974.934C409.468 973.911 429.793 970.682 449.257 963.399C462.263 958.537 475.161 953.478 486.876 945.944C505.048 934.265 521.696 921.115 535.133 903.607C546.022 889.417 552.983 874.204 554.059 856.749C554.508 849.412 552.965 841.052 549.628 834.54C539.815 815.363 523.418 804.617 501.694 801.872H501.73Z" fill="black"/>
<path d="M489.961 520.924C490.948 536.441 493.226 551.457 499.128 566.203C503.936 578.204 508.546 590.08 515.04 601.346C524.925 618.478 536.478 634.426 550.542 648.06C567.011 664.044 585.883 677.194 607.643 685.356C629.78 693.68 652.223 695.636 674.97 687.419C679.526 685.769 684.298 684.585 689.052 683.598C690.703 683.257 693.77 683.67 694.147 684.585C694.9 686.361 694.901 689.106 693.986 690.81C689.68 698.936 682.199 704.013 674.181 707.386C663.83 711.727 653.012 715.387 641.459 714.974C635.037 714.759 628.597 714.615 622.228 713.862C608.343 712.212 594.853 708.911 582.367 702.435C572.446 697.286 561.414 693.286 553.126 686.182C537.07 672.422 519.005 660.51 507.721 641.692C501.46 631.251 493.315 621.887 487.575 611.195C478.193 593.776 470.497 575.693 466.676 555.888C464.092 542.505 462.477 529.176 461.329 515.685C460.845 510.124 461.204 504.85 464.72 499.935C470.497 491.862 478.82 491.27 485.53 498.625C488.866 502.285 489.477 506.68 489.925 511.147C490.248 514.358 489.997 517.641 489.997 520.888L489.961 520.924Z" fill="black"/>
</svg>
